<svg id="Layer_1" data-name="Layer 1" xmlns="http://www.w3.org/2000/svg" width="154" height="162" viewBox="0 0 154 162"><defs><style>.cls-1{font-size:15px;font-family:Arial;font-weight:700;}.cls-1,.cls-4{fill:#d7dadb;}.cls-2{white-space:pre;}.cls-3{fill:none;stroke:#d7dadb;}</style></defs><title>bor_logo_footer</title><text class="cls-1" transform="translate(-0.99 145.87)">UNIVERSIT<tspan x="80.01" y="0">Y</tspan><tspan class="cls-2" x="89.74" y="0"> SYSTEM</tspan><tspan x="30.15" y="16">OF GEORGI</tspan><tspan x="115.16" y="16">A</tspan></text><rect class="cls-3" x="48.5" y="47.5" width="8" height="38"/><rect class="cls-3" x="64.5" y="47.5" width="8" height="38"/><rect class="cls-3" x="80.5" y="47.5" width="8" height="38"/><rect class="cls-3" x="96.5" y="47.5" width="8" height="38"/><rect class="cls-3" x="42.5" y="90.5" width="68" height="6"/><polygon class="cls-3" points="45.67 42.5 77.45 14.4 108.5 42.5 45.67 42.5"/><path class="cls-4" d="M32.22,102.22L30.39,100c-1.06-1.27-1.09-2.07-.3-2.73a1.28,1.28,0,0,1,1.8.06l0,0a1.46,1.46,0,0,1,.21-2c0.69-.58,1.72-0.57,2.77.69l2,2.35Zm1.39-2.3-1.43-1.71a1,1,0,0,0-1.46-.31c-0.43.36-.54,0.81,0.22,1.73l1.24,1.48Zm2.16-1.81-1.34-1.6c-0.76-.91-1.31-0.85-1.76-0.47s-0.52,1.06.16,1.88l1.31,1.56Z"/><path class="cls-4" d="M25.54,93.6a3.19,3.19,0,1,1,5.4-3.38A3.19,3.19,0,1,1,25.54,93.6Zm4.82-3a2.5,2.5,0,1,0-.8,3.43A2.36,2.36,0,0,0,30.36,90.59Z"/><path class="cls-4" d="M25.09,82.62L26.6,86l1.76,0.07L28.75,87,22,86.59l-0.41-.93,4.27-5.29,0.4,0.91Zm-0.49.58-2.17,2.62L25.83,86Z"/><path class="cls-4" d="M25.31,78.65l0.24,0.84-5.8,1.7-0.83-2.85c-0.52-1.79,0-2.37.89-2.64a1.44,1.44,0,0,1,1.74.93h0c-0.13-.81.12-1.11,1.06-1.55A7.24,7.24,0,0,0,24,74.29l0.26,0.89c-0.36.27-1.15,0.6-1.76,0.94-0.39.22-.61,0.58-0.29,1.67l0.47,1.62Zm-3.25,1-0.56-1.91c-0.26-.88-0.63-1.36-1.37-1.15s-0.84.66-.54,1.68l0.56,1.92Z"/><path class="cls-4" d="M17.74,73.79l-0.36-2.33c-0.41-2.66.56-3.73,2.52-4s3.09,0.67,3.44,3l0.38,2.45Zm5.17-1.68-0.25-1.62c-0.3-2-1.53-2.32-2.69-2.14-1.55.24-2.2,1.05-1.89,3.05l0.22,1.42Z"/><path class="cls-4" d="M16.51,58.92a3.08,3.08,0,0,1,3.34-3.25,3.08,3.08,0,0,1,3,3.55,3.08,3.08,0,0,1-3.34,3.25A3.09,3.09,0,0,1,16.51,58.92Zm5.67,0.27a2.37,2.37,0,0,0-2.38-2.6,2.48,2.48,0,1,0-.23,5A2.37,2.37,0,0,0,22.18,59.19Z"/><path class="cls-4" d="M17.16,53.34l0.75-4.23,0.68,0.12L18,52.6l1.95,0.34,0.56-3.21,0.68,0.12-0.56,3.21,2.66,0.47-0.15.86Z"/><path class="cls-4" d="M25.26,45.09l-0.3.82-5.68-2.06,1-2.79c0.64-1.76,1.37-1.94,2.29-1.6a1.44,1.44,0,0,1,.85,1.78h0c0.37-.73.75-0.82,1.77-0.62a7.27,7.27,0,0,0,1.6.22l-0.32.86c-0.46,0-1.28-.2-2-0.28-0.44-.05-0.83.11-1.22,1.18l-0.57,1.58Zm-3.18-1.15,0.68-1.87c0.31-.87.3-1.47-0.42-1.73s-1.07,0-1.43,1l-0.68,1.88Z"/><path class="cls-4" d="M22.06,36.71l2-4L24.71,33l-1.65,3.26,1.7,0.86,1.55-3,0.61,0.31-1.55,3,1.85,0.94L28.93,35l0.61,0.31-2.09,4.13Z"/><path class="cls-4" d="M29.67,29.29L31.25,27l2.25,1.54a7.47,7.47,0,0,1-1.17,2.74c-1.39,2-3.24,2.11-4.64,1.14A3.11,3.11,0,0,1,27,27.75c1-1.4,2-2,3.1-1.48L29.61,27c-0.75-.26-1.42.23-2,1a2.4,2.4,0,0,0,.57,3.56,2.47,2.47,0,0,0,3.58-.8A5.78,5.78,0,0,0,32.61,29l-1.28-.88-1.09,1.6Z"/><path class="cls-4" d="M30.51,23.36l3-3.36L34,20.45,31.6,23.17,33,24.45l2.29-2.54,0.51,0.46-2.28,2.54,1.54,1.39,2.51-2.79L38.1,24,35,27.4Z"/><path class="cls-4" d="M38.93,15.09l0.66-.57,4,4.58-0.9.78-6.17-1.49h0l3.37,3.91-0.66.57-4-4.58,0.9-.78L42.29,19h0Z"/><path class="cls-4" d="M43.47,12.7l-2.14,1.42-0.41-.62,5-3.31,0.41,0.61L44.2,12.22l2.94,4.43-0.73.48Z"/><path class="cls-4" d="M52,8.87c-0.45-.72-1.33-0.54-2.21-0.1a1.38,1.38,0,0,0-.93,1.69,0.87,0.87,0,0,0,1.2.28l2.19-.66a1.47,1.47,0,0,1,1.94.68c0.54,1.08-.1,2.21-1.71,3s-2.71.65-3.4-.5l0.82-.41c0.39,0.72,1.29.79,2.32,0.27s1.52-1.32,1.23-1.91c-0.75-1.5-4.21,1.93-5.34-.33-0.52-1,.06-2.08,1.54-2.82,1.12-.56,2.48-0.82,3.18.38Z"/><path class="cls-4" d="M60.59,3.88a3.08,3.08,0,0,1,4.12,2.17,3.08,3.08,0,0,1-2.44,4,3.08,3.08,0,0,1-4.12-2.17A3.08,3.08,0,0,1,60.59,3.88Zm1.5,5.48a2.37,2.37,0,0,0,1.73-3.06A2.48,2.48,0,1,0,59,7.6,2.37,2.37,0,0,0,62.08,9.36Z"/><path class="cls-4" d="M66.08,2.78l4.26-.6,0.1,0.68L67,3.33l0.28,2,3.23-.46,0.1,0.68L67.41,6l0.38,2.67-0.86.12Z"/><path class="cls-4" d="M77.57,2.64L75,2.58l0-.74L81,2l0,0.74-2.56-.06L78.31,8l-0.87,0Z"/><path class="cls-4" d="M87,6.07l-3.84-.59L82.74,8.26l-0.86-.13,0.91-6,0.86,0.13L83.26,4.8l3.84,0.59,0.38-2.52L88.35,3,87.44,9l-0.86-.13Z"/><path class="cls-4" d="M90.87,3.59l4.35,1.24L95,5.5l-3.51-1L91,6.33l3.29,0.94-0.19.66L90.8,7,90.23,9l3.61,1-0.19.66L89.2,9.41Z"/><path class="cls-4" d="M105,9.07l0.78,0.39-1.62,3.23a2.5,2.5,0,0,1-3.68,1.06,2.5,2.5,0,0,1-1.36-3.58l1.62-3.23,0.78,0.39L99.89,10.6a1.74,1.74,0,0,0,.9,2.54,1.75,1.75,0,0,0,2.57-.8Z"/><path class="cls-4" d="M112,13.53L112.75,14l-3.42,5-1-.67L108.22,12h0l-2.92,4.26-0.72-.49,3.42-5,1,0.67,0.13,6.35h0Z"/><path class="cls-4" d="M114.43,15.44L115.11,16l-3.87,4.65-0.67-.56Z"/><path class="cls-4" d="M116.24,16.86l0.69,0.68-2,5.45,5.41-2.12L121,21.51l-6.23,2.35L114,23.11Z"/><path class="cls-4" d="M122.07,22.85l2.81,3.54-0.54.43L122.07,24l-1.5,1.19,2.13,2.68-0.54.43L120,25.58l-1.63,1.29,2.33,2.94-0.54.43-2.88-3.62Z"/><path class="cls-4" d="M121.52,32.18l-0.46-.74,5.16-3.16,1.55,2.54c1,1.59.66,2.28-.17,2.78a1.44,1.44,0,0,1-1.92-.44h0c0.34,0.75.17,1.1-.61,1.77a7.21,7.21,0,0,0-1.16,1.12l-0.48-.79c0.28-.36,1-0.88,1.45-1.37,0.32-.31.44-0.72-0.16-1.69l-0.88-1.43Zm2.88-1.77,1,1.69c0.48,0.79,1,1.15,1.62.75s0.63-.86.08-1.77l-1-1.71Z"/><path class="cls-4" d="M130.37,39.44c0.74-.43.6-1.31,0.2-2.2a1.38,1.38,0,0,0-1.65-1,0.87,0.87,0,0,0-.33,1.19l0.57,2.21a1.47,1.47,0,0,1-.76,1.91c-1.1.49-2.21-.19-2.94-1.83s-0.53-2.74.64-3.38l0.38,0.84c-0.73.36-.84,1.26-0.37,2.31s1.25,1.58,1.86,1.31c1.53-.69-1.76-4.29.55-5.33,1.06-.48,2.08.15,2.76,1.65,0.51,1.15.72,2.51-.52,3.16Z"/><path class="cls-4" d="M132.9,41.59l0.29,0.82-5.71,2-0.29-.82Z"/><path class="cls-4" d="M133.63,46.39L133,43.91l0.71-.19,1.51,5.8-0.71.19-0.65-2.48-5.14,1.34-0.22-.84Z"/><path class="cls-4" d="M129.8,54.11l2.5-.34,3.11-3.32,0.15,1.11-2.49,2.54,3.08,1.79L136.3,57l-3.88-2.37-2.5.34Z"/><path class="cls-4" d="M134.64,66.37c0.85,0,1.13-.89,1.17-1.87a1.38,1.38,0,0,0-1-1.64,0.87,0.87,0,0,0-.83.91L133.47,66a1.47,1.47,0,0,1-1.54,1.36c-1.21-.06-1.88-1.17-1.8-3s0.77-2.68,2.1-2.73l0,0.92c-0.81,0-1.32.74-1.37,1.89s0.4,2,1.06,2c1.67,0.08.38-4.62,2.91-4.5,1.16,0.06,1.79,1.07,1.71,2.72-0.06,1.25-.5,2.57-1.89,2.58Z"/><path class="cls-4" d="M129.61,70.77l2.48,0.44,4-2.21-0.2,1.11-3.14,1.66,2.38,2.64-0.2,1.1-3-3.44-2.48-.44Z"/><path class="cls-4" d="M131.65,80.78c0.83,0.17,1.31-.58,1.61-1.52a1.38,1.38,0,0,0-.57-1.85,0.88,0.88,0,0,0-1,.67l-1,2a1.47,1.47,0,0,1-1.84.93c-1.15-.36-1.53-1.61-1-3.32s1.42-2.4,2.72-2.11l-0.27.88c-0.78-.22-1.46.39-1.8,1.48s-0.11,2,.52,2.21c1.6,0.5,1.53-4.37,3.95-3.62,1.11,0.35,1.46,1.49,1,3.06-0.37,1.2-1.13,2.36-2.48,2Z"/><path class="cls-4" d="M130.64,85.67l1.05-2.34,0.67,0.3-2.47,5.47-0.67-.3,1.05-2.34-4.84-2.18,0.36-.79Z"/><path class="cls-4" d="M129.07,90.6l-2.32,3.88-0.59-.35L128,91l-1.64-1L124.64,93,124,92.6l1.75-2.93L124,88.6l-1.92,3.22-0.59-.35,2.37-4Z"/><path class="cls-4" d="M124.32,97h0l-4.2-3.44,0.55-.67,4.67,3.84-0.88,1.08-5.79-1.31,2.42,5.43-0.88,1.07-4.67-3.84,0.55-.67,4.19,3.44h0l-2.48-5.54,0.59-.71Z"/><path class="cls-4" d="M41,104.92a1.52,1.52,0,1,1-2.13.2A1.52,1.52,0,0,1,41,104.92Z"/><path class="cls-4" d="M49.78,108.95a3.19,3.19,0,1,1-3.16,5.53A3.19,3.19,0,1,1,49.78,108.95ZM47,113.88a2.5,2.5,0,1,0-.92-3.4A2.36,2.36,0,0,0,47,113.88Z"/><path class="cls-4" d="M54.08,111.38l4,1.64-0.26.63-3.17-1.31-0.75,1.83,3,1.24-0.26.63-3-1.24-1,2.49-0.8-.33Z"/><path class="cls-4" d="M64.16,117.75l2.73,0.62L66.29,121a7.45,7.45,0,0,1-3-.08c-2.39-.55-3.15-2.24-2.77-3.9a3.11,3.11,0,0,1,4.08-2.33c1.66,0.38,2.59,1.1,2.51,2.35l-0.9-.21c0-.8-0.73-1.23-1.69-1.45a2.4,2.4,0,0,0-3.1,1.84,2.46,2.46,0,0,0,2.05,3,5.72,5.72,0,0,0,2,.07l0.35-1.52L64,118.42Z"/><path class="cls-4" d="M69.92,115.86l4.51,0.37-0.06.68-3.64-.3-0.16,1.9L74,118.8l-0.06.68-3.4-.28-0.17,2.07,3.74,0.31-0.06.68-4.61-.38Z"/><path class="cls-4" d="M79.34,116a3.19,3.19,0,1,1-3.23,3.35A3.08,3.08,0,0,1,79.34,116Zm0.29,5.67A2.5,2.5,0,1,0,77,119.3,2.37,2.37,0,0,0,79.63,121.66Z"/><path class="cls-4" d="M86.26,121.52l-0.86.16-1.13-5.94,2.92-.55c1.84-.35,2.36.19,2.54,1.14a1.44,1.44,0,0,1-1.1,1.64v0c0.82-.05,1.09.23,1.44,1.2a7.22,7.22,0,0,0,.63,1.48l-0.9.17c-0.24-.39-0.48-1.2-0.77-1.84-0.18-.41-0.52-0.66-1.64-0.45l-1.65.32Zm-0.63-3.32,1.95-.37c0.91-.17,1.42-0.49,1.27-1.25s-0.58-.9-1.62-0.7l-2,.37Z"/><path class="cls-4" d="M95.42,115.95l2.66-.9L99,117.63a7.45,7.45,0,0,1-2.57,1.49c-2.32.79-3.86-.26-4.4-1.87a3.11,3.11,0,0,1,2.24-4.12c1.61-.55,2.78-0.43,3.37.68l-0.87.29c-0.44-.66-1.27-0.66-2.2-0.35a2.41,2.41,0,0,0-1.67,3.2,2.46,2.46,0,0,0,3.34,1.51,5.72,5.72,0,0,0,1.78-1L97.48,116l-1.83.62Z"/><path class="cls-4" d="M98.73,111.53l0.79-.36,2.51,5.51-0.79.36Z"/><path class="cls-4" d="M107.44,112l-3.22,1.85,0.11,1.75-0.84.48-0.31-6.79,0.89-.51,5.7,3.7-0.86.5Zm-0.63-.43-2.82-1.9,0.2,3.4Z"/><path class="cls-4" d="M112,105.08a1.52,1.52,0,1,1-.21,2.13A1.51,1.51,0,0,1,112,105.08Z"/></svg>